/vscmnt/brussel_pixiu_data/_data_brussel/112/vsc11236/PredSimResults/SUBJ11opt3D/weighted-expIG/worker_03.mot
version=1
nRows=10
nColumns=50
inDegrees=yes
endheader
                time	         pelvis_tilt	         pelvis_list	     pelvis_rotation	           pelvis_tx	           pelvis_ty	           pelvis_tz	       hip_flexion_r	     hip_adduction_r	      hip_rotation_r	        knee_angle_r	       ankle_angle_r	         mtp_angle_r	       hip_flexion_l	     hip_adduction_l	      hip_rotation_l	        knee_angle_l	       ankle_angle_l	         mtp_angle_l	    lumbar_extension	      lumbar_bending	     lumbar_rotation	 ercspn_r/activation	 intobl_r/activation	 extobl_r/activation	    abd_r/activation	    add_r/activation	hamstrings_r/activation	bifemsh_r/activation	glut_max_r/activation	iliopsoas_r/activation	rect_fem_r/activation	  vasti_r/activation	gastroc_r/activation	 soleus_r/activation	tib_ant_r/activation	 ercspn_l/activation	 intobl_l/activation	 extobl_l/activation	    abd_l/activation	    add_l/activation	hamstrings_l/activation	bifemsh_l/activation	glut_max_l/activation	iliopsoas_l/activation	rect_fem_l/activation	  vasti_l/activation	gastroc_l/activation	 soleus_l/activation	tib_ant_l/activation	
          2.10767951	         -2.96523787	          1.37244827	         -6.43870100	          2.21306349	          0.93979992	          0.00433226	        -13.81037145	         -3.38531692	         -1.51555813	        -12.78249417	         12.42479545	         30.73362445	         31.27503071	         -1.40243090	         -4.46821288	        -10.44946538	          1.50179110	          0.25651888	        -13.92610115	          2.06761935	          3.38099216	          0.01000042	          0.01000010	          0.01000005	          0.03534147	          0.05688013	          0.02304996	          0.25045372	          0.02631721	          0.25900445	          0.01000084	          0.01000012	          0.14893712	          0.32646906	          0.01234182	          0.02644800	          0.21687453	          0.05979883	          0.01000001	          0.26507324	          0.03601110	          0.12378818	          0.09087437	          0.10120054	          0.03907988	          0.01605006	          0.01000010	          0.01000003	          0.41831530	
          2.12173071	         -3.10250950	          1.44005835	         -6.50615009	          2.23237422	          0.93758079	          0.00296663	        -14.23016305	         -3.67028294	         -1.90108188	        -13.82129772	         11.56318679	         32.67903054	         31.02740333	         -1.20317391	         -4.61103866	        -11.74212444	          1.04491325	          0.20967509	        -13.41284821	          1.53163904	          3.59272543	          0.02049820	          0.01000005	          0.01000053	          0.02863544	          0.04609428	          0.03219567	          0.21199135	          0.02132353	          0.20986114	          0.01000010	          0.01000004	          0.12067635	          0.30143882	          0.01000002	          0.02142955	          0.17572292	          0.04845202	          0.03254934	          0.21477577	          0.05321368	          0.10029954	          0.12519843	          0.08199776	          0.03166453	          0.01300458	          0.01234186	          0.01186290	          0.47267345	
          2.13578191	         -3.21853468	          1.51038782	         -6.54547144	          2.25193795	          0.93575947	          0.00151401	        -14.44045178	         -3.97155772	         -2.30183284	        -15.26216222	         10.51389732	         34.72395259	         30.70783853	         -1.01555292	         -4.79648869	        -12.95006267	          0.37682276	          0.19955308	        -12.88413400	          0.99024431	          3.79273374	          0.02521792	          0.01000002	          0.01000008	          0.02320187	          0.03734802	          0.02932639	          0.17176667	          0.01727740	          0.20358201	          0.01000015	          0.01000003	          0.09777805	          0.27326333	          0.01000002	          0.02448366	          0.14237956	          0.03925826	          0.07852526	          0.24737665	          0.05157281	          0.08126783	          0.13336217	          0.06643871	          0.02565623	          0.01053703	          0.01000005	          0.01000001	          0.54558694	
          2.14983310	         -3.31347689	          1.57113323	         -6.55317017	          2.27141701	          0.93451175	         -0.00002982	        -14.35429420	         -4.27828832	         -2.71042625	        -17.20862550	          9.24213153	         36.83513244	         30.46333717	         -0.85171044	         -5.05364374	        -14.29115442	         -0.34433906	          0.15746259	        -12.38098982	          0.45865056	          3.97530804	          0.05537913	          0.01000004	          0.01000006	          0.01879933	          0.08840123	          0.03075378	          0.13917464	          0.01399903	          0.16495381	          0.01000010	          0.01000002	          0.07922469	          0.23058099	          0.01000001	          0.03449254	          0.11536308	          0.03180902	          0.11292619	          0.28604962	          0.05739196	          0.06584738	          0.12192388	          0.05383198	          0.02078800	          0.09227656	          0.01000005	          0.01000002	          0.60095114	
          2.16388430	         -3.38863830	          1.62378764	         -6.53074266	          2.29062704	          0.93399473	         -0.00163832	        -13.90889270	         -4.59418905	         -3.12428954	        -19.73354094	          7.73074660	         38.87748460	         30.25994166	         -0.69953185	         -5.33308269	        -15.75448086	         -0.76507360	          0.09787184	        -11.91898918	         -0.06481969	          4.13655460	          0.08850457	          0.01000003	          0.01000007	          0.01523216	          0.15898040	          0.03948039	          0.11276759	          0.01134272	          0.13365404	          0.01000007	          0.01000001	          0.06419183	          0.18682831	          0.01000001	          0.02796345	          0.09347298	          0.02577327	          0.13377848	          0.30089369	          0.05824957	          0.05335297	          0.14290768	          0.04361738	          0.01684353	          0.16611311	          0.01000005	          0.01000001	          0.61444974	
          2.17793550	         -3.44673938	          1.66890844	         -6.47495499	          2.30935290	          0.93437268	         -0.00327480	        -13.04679582	         -4.92024474	         -3.54766812	        -22.88934710	          5.98186236	         40.59227491	         30.03223348	         -0.54279467	         -5.57941480	        -17.24542523	         -0.67170585	          0.04699853	        -11.51702957	         -0.58226192	          4.26948752	          0.10426469	          0.01000006	          0.01000007	          0.01234186	          0.21138277	          0.05554198	          0.10256227	          0.01000001	          0.10829328	          0.01000003	          0.01000000	          0.05201145	          0.15137768	          0.01000005	          0.02265757	          0.07573651	          0.02088280	          0.14723096	          0.31102895	          0.06149784	          0.04322946	          0.13976182	          0.03534100	          0.01364751	          0.21306456	          0.01000004	          0.01000001	          0.56225423	
          2.19198669	         -3.49039361	          1.69651424	         -6.38451919	          2.32745249	          0.93569035	         -0.00489185	        -11.74385005	         -5.25236645	         -4.00797557	        -26.70424936	          4.19230411	         41.32972387	         29.70155472	         -0.37444600	         -5.73613186	        -18.60480443	         -0.08701622	          0.05916512	        -11.18662818	         -1.08621833	          4.37066999	          0.10753751	          0.01000009	          0.01000012	          0.01000001	          0.26427962	          0.05973504	          0.08310165	          0.01000001	          0.08774470	          0.01000003	          0.01000000	          0.04214229	          0.12265380	          0.01000001	          0.01835836	          0.06136554	          0.01692030	          0.15168363	          0.30228759	          0.06327342	          0.03502695	          0.13225012	          0.02863506	          0.01105797	          0.27056791	          0.01000010	          0.01000002	          0.46759891	
          2.20603789	         -3.52227837	          1.68611379	         -6.25286371	          2.34487449	          0.93796251	         -0.00644048	        -10.01882491	         -5.57881373	         -4.50315004	        -31.11105808	          2.35114958	         40.84442346	         29.15681988	         -0.19960617	         -5.77608726	        -19.59670775	          0.78690663	          0.22066621	        -10.93187280	         -1.55843227	          4.43373654	          0.08942558	          0.01000004	          0.02268432	          0.01000000	          0.30079016	          0.05383249	          0.07074778	          0.01000000	          0.07109519	          0.01000002	          0.01000000	          0.03414581	          0.09938028	          0.01000002	          0.01487492	          0.04972145	          0.01370969	          0.14493709	          0.28024379	          0.06734321	          0.02838091	          0.10715592	          0.02320156	          0.01000013	          0.29638815	          0.01000007	          0.01000001	          0.37921249	
          2.22008909	         -3.54431499	          1.61321504	         -6.07061889	          2.36161944	          0.94109561	         -0.00789033	         -7.94378366	         -5.87653926	         -5.00698156	        -35.88803116	          0.24052390	         39.35493344	         28.34136984	         -0.04159864	         -5.70892648	        -20.06617352	          1.62020022	          0.49044827	        -10.75523000	         -1.97469998	          4.45469072	          0.07374839	          0.01000762	          0.05032781	          0.01000000	          0.31718804	          0.04361782	          0.07647211	          0.01000001	          0.05760493	          0.01000002	          0.01000000	          0.02766665	          0.08052289	          0.01000003	          0.01205248	          0.04028683	          0.01110830	          0.12347399	          0.26445074	          0.06951048	          0.02299579	          0.08682317	          0.01879908	          0.01000012	          0.29428780	          0.01000006	          0.01000001	          0.31640805	
          2.23414028	         -3.55588337	          1.46492928	         -5.83398876	          2.37771334	          0.94487602	         -0.00924579	         -5.61039230	         -6.12814472	         -5.46143267	        -40.81575564	         -2.11915484	         36.84817985	         27.29363576	          0.07642082	         -5.54617764	        -20.07090132	          2.32896548	          0.81472335	        -10.65846968	         -2.31756459	          4.43737627	          0.08335546	          0.03831197	          0.07911892	          0.01000000	          0.25700177	          0.03534136	          0.06581456	          0.01000001	          0.04667446	          0.01000002	          0.01000000	          0.02241692	          0.06524369	          0.04139722	          0.01000115	          0.03264242	          0.01000005	          0.10610795	          0.21693887	          0.06735578	          0.01863241	          0.07034863	          0.01523196	          0.01000013	          0.26747906	          0.01000005	          0.01000001	          0.27369240	
